<svg xmlns="http://www.w3.org/2000/svg" viewBox="0 0 20 20"><defs><style>.a{fill:#ff9c00;}</style></defs><path class="a" d="M10,18.2A8.2,8.2,0,1,1,18.2,10,8.21,8.21,0,0,1,10,18.2Zm0-15A6.8,6.8,0,1,0,16.8,10,6.81,6.81,0,0,0,10,3.2Z"/><path class="a" d="M10,10.9a.9.9,0,0,1-.9-.9V7a.9.9,0,0,1,1.8,0v3A.9.9,0,0,1,10,10.9Z"/><path class="a" d="M10,14.1A1.26,1.26,0,0,1,9.57,14a1.21,1.21,0,0,1-.35-.24A.88.88,0,0,1,9,13.42,1,1,0,0,1,8.89,13a1.12,1.12,0,0,1,.33-.78,1.15,1.15,0,0,1,1.55,0,1.11,1.11,0,0,1,.33.78,1,1,0,0,1-.09.42.88.88,0,0,1-.24.36A1.06,1.06,0,0,1,10,14.1Z"/></svg>
