<svg xmlns="http://www.w3.org/2000/svg" viewBox="0 0 24 24"><defs><style>.a{fill:#6d82ff;}</style></defs><path class="a" d="M12,22A10,10,0,1,1,22,12,10,10,0,0,1,12,22ZM12,3.71A8.29,8.29,0,1,0,20.29,12,8.3,8.3,0,0,0,12,3.71Z"/><path class="a" d="M12,17.35a1.09,1.09,0,0,1-1.1-1.09V12.19a1.1,1.1,0,0,1,2.2,0v4.07A1.09,1.09,0,0,1,12,17.35Z"/><path class="a" d="M12,9.68a1.12,1.12,0,0,1-.51-.11,1.07,1.07,0,0,1-.44-.28,1.71,1.71,0,0,1-.29-.43,1.55,1.55,0,0,1-.1-.52,1.37,1.37,0,0,1,.39-1,1.39,1.39,0,0,1,1.9,0,1.37,1.37,0,0,1,.39,1A1.33,1.33,0,0,1,12,9.68Z"/></svg>
