<svg xmlns="http://www.w3.org/2000/svg" viewBox="0 0 20 20"><defs><style>.a{fill:none;stroke:#6d82ff;stroke-linecap:round;stroke-linejoin:round;stroke-width:1.2px;}</style></defs><circle class="a" cx="10" cy="10" r="2.45"/><path class="a" d="M16.05,12.45a1.36,1.36,0,0,0,.27,1.49l.05.05a1.64,1.64,0,0,1,0,2.32h0a1.63,1.63,0,0,1-2.31,0h0l-.05,0a1.36,1.36,0,0,0-2.31,1v.14a1.64,1.64,0,1,1-3.27,0v-.07a1.41,1.41,0,0,0-2.37-1l0,.05a1.64,1.64,0,0,1-2.32,0h0a1.63,1.63,0,0,1,0-2.31h0L3.74,14a1.36,1.36,0,0,0-1-2.31H2.64a1.64,1.64,0,1,1,0-3.27h.07a1.41,1.41,0,0,0,1-2.37L3.63,6a1.64,1.64,0,0,1,0-2.32h0a1.63,1.63,0,0,1,2.31,0h0l0,.05A1.46,1.46,0,0,0,7.55,4h0a1.35,1.35,0,0,0,.81-1.23V2.64a1.64,1.64,0,0,1,3.28,0v.07a1.35,1.35,0,0,0,2.3,1L14,3.63a1.64,1.64,0,0,1,2.32,0h0a1.63,1.63,0,0,1,0,2.31h0l0,0A1.46,1.46,0,0,0,16,7.55h0a1.35,1.35,0,0,0,1.23.81h.14a1.64,1.64,0,0,1,0,3.28h-.07A1.36,1.36,0,0,0,16.05,12.45Z"/></svg>
