<svg xmlns="http://www.w3.org/2000/svg" viewBox="0 0 75 75"><defs><style>.a,.b{fill:#6d82ff;}.a{opacity:0.3;}</style></defs><path class="a" d="M59,14.44H16a5,5,0,0,0-5,5v5.78a1,1,0,0,0,1,1H63a1,1,0,0,0,1-1V19.47A5,5,0,0,0,59,14.44Z"/><path class="b" d="M11,28.77V56.59c0,3.29,2,6,4.49,6h44c2.48,0,4.49-2.68,4.49-6V28.77Zm15.89,20H18A1.39,1.39,0,0,1,18,46h8.89a1.39,1.39,0,1,1,0,2.78Zm8.38-5.91H18a1.39,1.39,0,0,1,0-2.78H35.27a1.39,1.39,0,0,1,0,2.78Zm0-5.91H18a1.39,1.39,0,1,1,0-2.78H35.27a1.39,1.39,0,0,1,0,2.78Z"/></svg>
